<mxfile host="app.diagrams.net" modified="2020-11-28T11:15:54.893Z" agent="5.0 (Windows NT 10.0; Win64; x64) AppleWebKit/537.36 (KHTML, like Gecko) Chrome/87.0.4280.66 Safari/537.36" etag="9_0aaMK2Bj81SbQ5Escc" version="13.10.0" type="github">
  <diagram id="x2aeX0FKMXfaCVDCNB5T" name="Page-1">
    <mxGraphModel dx="1422" dy="839" grid="0" gridSize="10" guides="1" tooltips="1" connect="1" arrows="1" fold="1" page="1" pageScale="1" pageWidth="1654" pageHeight="2336" math="0" shadow="0">
      <root>
        <mxCell id="0" />
        <mxCell id="1" parent="0" />
        <mxCell id="prrkVOzC_5ECkqXIFXUi-2" value="" style="aspect=fixed;pointerEvents=1;shadow=0;dashed=0;html=1;strokeColor=none;labelPosition=center;verticalLabelPosition=bottom;verticalAlign=top;align=center;shape=mxgraph.mscae.enterprise.document;fillColor=#4495d1;" vertex="1" parent="1">
          <mxGeometry x="290" y="594" width="80" height="100" as="geometry" />
        </mxCell>
        <mxCell id="prrkVOzC_5ECkqXIFXUi-3" value="" style="shape=image;html=1;verticalAlign=top;verticalLabelPosition=bottom;labelBackgroundColor=#ffffff;imageAspect=0;aspect=fixed;image=https://cdn4.iconfinder.com/data/icons/logos-and-brands/512/267_Python_logo-128.png" vertex="1" parent="1">
          <mxGeometry x="664" y="589" width="100" height="100" as="geometry" />
        </mxCell>
        <mxCell id="prrkVOzC_5ECkqXIFXUi-4" value="" style="pointerEvents=1;shadow=0;dashed=0;html=1;strokeColor=none;fillColor=#4495D1;labelPosition=center;verticalLabelPosition=bottom;verticalAlign=top;align=center;outlineConnect=0;shape=mxgraph.veeam.cpu;" vertex="1" parent="1">
          <mxGeometry x="1006" y="589" width="110" height="100" as="geometry" />
        </mxCell>
        <mxCell id="prrkVOzC_5ECkqXIFXUi-5" value="" style="shape=image;html=1;verticalAlign=top;verticalLabelPosition=bottom;labelBackgroundColor=#ffffff;imageAspect=0;aspect=fixed;image=https://cdn3.iconfinder.com/data/icons/logos-brands-3/24/logo_brand_brands_logos_word-128.png;fillColor=#4495d1;" vertex="1" parent="1">
          <mxGeometry x="467" y="107" width="128" height="128" as="geometry" />
        </mxCell>
        <mxCell id="prrkVOzC_5ECkqXIFXUi-7" value="" style="html=1;verticalLabelPosition=bottom;align=center;labelBackgroundColor=#ffffff;verticalAlign=top;strokeWidth=2;strokeColor=#0080F0;shadow=0;dashed=0;shape=mxgraph.ios7.icons.document;fillColor=#4495d1;" vertex="1" parent="1">
          <mxGeometry x="710" y="414" width="21" height="30" as="geometry" />
        </mxCell>
        <mxCell id="prrkVOzC_5ECkqXIFXUi-10" value="" style="shape=image;html=1;verticalAlign=top;verticalLabelPosition=bottom;labelBackgroundColor=#ffffff;imageAspect=0;aspect=fixed;image=https://cdn3.iconfinder.com/data/icons/logos-brands-3/24/logo_brand_brands_logos_excel-128.png;fillColor=#4495d1;" vertex="1" parent="1">
          <mxGeometry x="766" y="107" width="128" height="128" as="geometry" />
        </mxCell>
      </root>
    </mxGraphModel>
  </diagram>
</mxfile>
